<?xml version="1.0" encoding="UTF-8"?>
<!DOCTYPE svg PUBLIC "-//W3C//DTD SVG 1.1//EN" "http://www.w3.org/Graphics/SVG/1.1/DTD/svg11.dtd">
<svg xmlns="http://www.w3.org/2000/svg" xmlns:xlink="http://www.w3.org/1999/xlink" version="1.1" width="1164px" height="725px" viewBox="-0.5 -0.5 1164 725" style="background-color: rgb(255, 255, 255);"><defs/><g><path d="M 1 139 L 551 139 L 551 529 L 1 529 Z" fill="rgb(255, 255, 255)" stroke="#666666" stroke-width="3" stroke-miterlimit="10" pointer-events="all"/><ellipse cx="486" cy="154" rx="10" ry="10" fill="none" stroke="#666666" stroke-width="3" pointer-events="all"/><ellipse cx="511" cy="154" rx="10" ry="10" fill="none" stroke="#666666" stroke-width="3" pointer-events="all"/><ellipse cx="536" cy="154" rx="10" ry="10" fill="none" stroke="#008cff" stroke-width="3" pointer-events="all"/><path d="M 1 179 L 31 179 L 31 154 C 31 151.24 33.24 149 36 149 L 171 149 C 173.76 149 176 151.24 176 154 L 176 179 L 551 179" fill="none" stroke="#c4c4c4" stroke-width="3" stroke-miterlimit="10" pointer-events="all"/><path d="M 1 249 L 551 249" fill="none" stroke="#c4c4c4" stroke-width="3" stroke-miterlimit="10" pointer-events="all"/><path d="M 101 199 C 101 196.24 103.24 194 106 194 L 536 194 C 538.76 194 541 196.24 541 199 L 541 224 C 541 226.76 538.76 229 536 229 L 106 229 C 103.24 229 101 226.76 101 224 Z" fill="none" stroke="#c4c4c4" stroke-width="3" stroke-miterlimit="10" pointer-events="all"/><g fill="#666666" font-family="Arial,Helvetica" font-size="17px"/><g fill="#666666" font-family="Arial,Helvetica" font-size="17px"/><path d="M 38 156 L 49 156 L 53 160 L 53 174 L 38 174 Z" fill="none" stroke="#c4c4c4" stroke-width="3" stroke-miterlimit="10" pointer-events="all"/><path d="M 49 156 L 49 160 L 53 161" fill="none" stroke="#c4c4c4" stroke-width="1.5" stroke-miterlimit="10" pointer-events="all"/><path d="M 108 203 L 119 203 L 123 207 L 123 221 L 108 221 Z" fill="none" stroke="#c4c4c4" stroke-width="6" stroke-miterlimit="10" pointer-events="all"/><path d="M 119 203 L 119 207 L 123 208" fill="none" stroke="#c4c4c4" stroke-width="1.5" stroke-miterlimit="10" pointer-events="all"/><path d="M 13 213 L 23 203 L 23 209 L 33 209 L 33 217 L 23 217 L 23 223 Z" fill="#c4c4c4" stroke="#c4c4c4" stroke-width="6" stroke-miterlimit="10" pointer-events="all"/><path d="M 63 213 L 53 203 L 53 209 L 43 209 L 43 217 L 53 217 L 53 223 Z" fill="#c4c4c4" stroke="#c4c4c4" stroke-width="6" stroke-miterlimit="10" pointer-events="all"/><path d="M 88.6 216.3 C 86.9 219.13 83.22 220.06 80.38 218.36 C 77.54 216.67 76.61 213 78.29 210.15 C 79.98 207.31 83.65 206.36 86.5 208.04 L 84.9 209.5 L 92.8 211.3 L 91 203.8 L 89.3 205.4 C 86.11 203.03 81.8 202.82 78.39 204.87 C 74.99 206.92 73.16 210.83 73.77 214.76 C 74.37 218.69 77.3 221.86 81.16 222.79 C 85.03 223.72 89.07 222.22 91.4 219 Z" fill="#c4c4c4" stroke="#c4c4c4" stroke-width="6" stroke-miterlimit="10" pointer-events="all"/><g fill="#666666" font-family="Helvetica" font-size="17px"><text x="62.5" y="171">Example</text></g><g fill="#666666" font-family="Helvetica" font-size="17px"><text x="132.5" y="219">https://www.example.com</text></g><rect x="11" y="270" width="90" height="30" fill="rgb(255, 255, 255)" stroke="none" pointer-events="all"/><g fill="#666666" font-family="Arial,Helvetica" font-size="17px"/><g fill="#666666" font-family="Helvetica" font-size="17px"><text x="16.5" y="290.5">Enter text:</text></g><rect x="424" y="469" width="105.5" height="40" rx="6" ry="6" fill="#ffffff" stroke="#4d4d4d" pointer-events="all"/><rect x="442.75" y="475" width="67.25" height="30" fill="rgb(255, 255, 255)" stroke="none" pointer-events="all"/><g fill="#666666" font-family="Arial,Helvetica" font-size="17px"/><g fill="#666666" font-family="Helvetica" font-size="17px"><text x="448.25" y="495.5">Submit</text></g><rect x="101" y="270" width="430" height="179" fill="rgb(255, 255, 255)" stroke="#666666" pointer-events="all"/><g fill="#666666" font-family="Arial,Helvetica" font-size="17px"/><rect x="681" y="242.5" width="135" height="234" fill="none" stroke="none" pointer-events="all"/><path d="M 808.23 242.99 L 688.77 242.99 C 684.49 242.99 681 246.48 681 250.77 L 681 468.24 C 681 472.53 684.49 476.01 688.77 476.01 L 808.23 476.01 C 812.52 476.01 816 472.53 816 468.24 L 816 250.77 C 816 246.48 812.52 242.99 808.23 242.99 Z M 691.59 465.42 L 691.59 253.58 L 805.41 253.58 L 805.41 465.42 Z M 704.49 277.37 L 792.52 277.37 L 792.52 266.78 L 704.49 266.78 Z M 704.49 299.97 L 792.52 299.97 L 792.52 289.38 L 704.49 289.38 Z M 704.49 323.44 L 792.52 323.44 L 792.52 312.85 L 704.49 312.85 Z M 704.49 346.34 L 792.52 346.34 L 792.52 335.75 L 704.49 335.75 Z" fill="#666666" stroke="none" pointer-events="all"/><path d="M 561 359 L 662.76 359" fill="none" stroke="rgb(0, 0, 0)" stroke-width="2" stroke-miterlimit="10" pointer-events="stroke"/><path d="M 668.76 359 L 660.76 363 L 662.76 359 L 660.76 355 Z" fill="rgb(0, 0, 0)" stroke="rgb(0, 0, 0)" stroke-width="2" stroke-miterlimit="10" pointer-events="all"/><path d="M 821 359 L 1024.3 213.79" fill="none" stroke="rgb(0, 0, 0)" stroke-width="2" stroke-miterlimit="10" pointer-events="stroke"/><path d="M 1029.18 210.3 L 1025 218.2 L 1024.3 213.79 L 1020.35 211.69 Z" fill="rgb(0, 0, 0)" stroke="rgb(0, 0, 0)" stroke-width="2" stroke-miterlimit="10" pointer-events="all"/><path d="M 821 359 L 1026.28 652.25" fill="none" stroke="rgb(0, 0, 0)" stroke-width="2" stroke-miterlimit="10" pointer-events="stroke"/><path d="M 1029.72 657.17 L 1021.85 652.91 L 1026.28 652.25 L 1028.41 648.32 Z" fill="rgb(0, 0, 0)" stroke="rgb(0, 0, 0)" stroke-width="2" stroke-miterlimit="10" pointer-events="all"/><path d="M 821 359 L 1022.76 359" fill="none" stroke="rgb(0, 0, 0)" stroke-width="2" stroke-miterlimit="10" pointer-events="stroke"/><path d="M 1028.76 359 L 1020.76 363 L 1022.76 359 L 1020.76 355 Z" fill="rgb(0, 0, 0)" stroke="rgb(0, 0, 0)" stroke-width="2" stroke-miterlimit="10" pointer-events="all"/><path d="M 821 359 L 1024.3 504.21" fill="none" stroke="rgb(0, 0, 0)" stroke-width="2" stroke-miterlimit="10" pointer-events="stroke"/><path d="M 1029.18 507.7 L 1020.35 506.31 L 1024.3 504.21 L 1025 499.8 Z" fill="rgb(0, 0, 0)" stroke="rgb(0, 0, 0)" stroke-width="2" stroke-miterlimit="10" pointer-events="all"/><path d="M 821 359 L 1026.28 65.75" fill="none" stroke="rgb(0, 0, 0)" stroke-width="2" stroke-miterlimit="10" pointer-events="stroke"/><path d="M 1029.72 60.83 L 1028.41 69.68 L 1026.28 65.75 L 1021.85 65.09 Z" fill="rgb(0, 0, 0)" stroke="rgb(0, 0, 0)" stroke-width="2" stroke-miterlimit="10" pointer-events="all"/><rect x="1041" y="602" width="120" height="120" fill="rgb(255, 255, 255)" stroke="#666666" stroke-width="5" pointer-events="none"/><g fill="rgb(0, 0, 0)" font-family="Helvetica" pointer-events="none" text-anchor="middle" font-size="12px"><text x="1100.5" y="666.5">Email</text></g><rect x="1041" y="2" width="120" height="120" fill="rgb(255, 255, 255)" stroke="#666666" stroke-width="5" pointer-events="none"/><g fill="rgb(0, 0, 0)" font-family="Helvetica" pointer-events="none" text-anchor="middle" font-size="12px"><text x="1100.5" y="66.5">Webpage</text></g><rect x="1041" y="152" width="120" height="120" fill="rgb(255, 255, 255)" stroke="#666666" stroke-width="5" pointer-events="none"/><g fill="rgb(0, 0, 0)" font-family="Helvetica" pointer-events="none" text-anchor="middle" font-size="12px"><text x="1100.5" y="216.5">SQL Server</text></g><rect x="1041" y="302" width="120" height="120" fill="rgb(255, 255, 255)" stroke="#666666" stroke-width="5" pointer-events="none"/><g fill="rgb(0, 0, 0)" font-family="Helvetica" pointer-events="none" text-anchor="middle" font-size="12px"><text x="1100.5" y="366.5">Log file</text></g><rect x="1041" y="452" width="120" height="120" fill="rgb(255, 255, 255)" stroke="#666666" stroke-width="5" pointer-events="none"/><g fill="rgb(0, 0, 0)" font-family="Helvetica" pointer-events="none" text-anchor="middle" font-size="12px"><text x="1100.5" y="516.5">Printer</text></g><g fill="rgb(0, 0, 0)" font-family="Helvetica" pointer-events="none" text-anchor="middle" font-size="12px"><text x="748.5" y="520.5">web server</text></g><g fill="rgb(0, 0, 0)" font-family="Helvetica" pointer-events="none" text-anchor="middle" font-size="12px"><text x="748.5" y="497.5">example.com</text></g></g></svg>