<?xml version="1.0" encoding="UTF-8"?>
<!DOCTYPE svg PUBLIC "-//W3C//DTD SVG 1.1//EN" "http://www.w3.org/Graphics/SVG/1.1/DTD/svg11.dtd">
<svg xmlns="http://www.w3.org/2000/svg" xmlns:xlink="http://www.w3.org/1999/xlink" version="1.1" width="553px" height="393px" viewBox="-0.5 -0.5 553 393" style="background-color: rgb(255, 255, 255);"><defs/><g><path d="M 1 1 L 551 1 L 551 391 L 1 391 Z" fill="rgb(255, 255, 255)" stroke="#666666" stroke-width="3" stroke-miterlimit="10" pointer-events="all"/><ellipse cx="486" cy="16" rx="10" ry="10" fill="none" stroke="#666666" stroke-width="3" pointer-events="all"/><ellipse cx="511" cy="16" rx="10" ry="10" fill="none" stroke="#666666" stroke-width="3" pointer-events="all"/><ellipse cx="536" cy="16" rx="10" ry="10" fill="none" stroke="#008cff" stroke-width="3" pointer-events="all"/><path d="M 1 41 L 31 41 L 31 16 C 31 13.24 33.24 11 36 11 L 171 11 C 173.76 11 176 13.24 176 16 L 176 41 L 551 41" fill="none" stroke="#c4c4c4" stroke-width="3" stroke-miterlimit="10" pointer-events="all"/><path d="M 1 111 L 551 111" fill="none" stroke="#c4c4c4" stroke-width="3" stroke-miterlimit="10" pointer-events="all"/><path d="M 101 61 C 101 58.24 103.24 56 106 56 L 536 56 C 538.76 56 541 58.24 541 61 L 541 86 C 541 88.76 538.76 91 536 91 L 106 91 C 103.24 91 101 88.76 101 86 Z" fill="none" stroke="#c4c4c4" stroke-width="3" stroke-miterlimit="10" pointer-events="all"/><g fill="#666666" font-family="Arial,Helvetica" font-size="17px"/><g fill="#666666" font-family="Arial,Helvetica" font-size="17px"/><path d="M 38 18 L 49 18 L 53 22 L 53 36 L 38 36 Z" fill="none" stroke="#c4c4c4" stroke-width="3" stroke-miterlimit="10" pointer-events="all"/><path d="M 49 18 L 49 22 L 53 23" fill="none" stroke="#c4c4c4" stroke-width="1.5" stroke-miterlimit="10" pointer-events="all"/><path d="M 108 65 L 119 65 L 123 69 L 123 83 L 108 83 Z" fill="none" stroke="#c4c4c4" stroke-width="6" stroke-miterlimit="10" pointer-events="all"/><path d="M 119 65 L 119 69 L 123 70" fill="none" stroke="#c4c4c4" stroke-width="1.5" stroke-miterlimit="10" pointer-events="all"/><path d="M 13 75 L 23 65 L 23 71 L 33 71 L 33 79 L 23 79 L 23 85 Z" fill="#c4c4c4" stroke="#c4c4c4" stroke-width="6" stroke-miterlimit="10" pointer-events="all"/><path d="M 63 75 L 53 65 L 53 71 L 43 71 L 43 79 L 53 79 L 53 85 Z" fill="#c4c4c4" stroke="#c4c4c4" stroke-width="6" stroke-miterlimit="10" pointer-events="all"/><path d="M 88.6 78.3 C 86.9 81.13 83.22 82.06 80.38 80.36 C 77.54 78.67 76.61 75 78.29 72.15 C 79.98 69.31 83.65 68.36 86.5 70.04 L 84.9 71.5 L 92.8 73.3 L 91 65.8 L 89.3 67.4 C 86.11 65.03 81.8 64.82 78.39 66.87 C 74.99 68.92 73.16 72.83 73.77 76.76 C 74.37 80.69 77.3 83.86 81.16 84.79 C 85.03 85.72 89.07 84.22 91.4 81 Z" fill="#c4c4c4" stroke="#c4c4c4" stroke-width="6" stroke-miterlimit="10" pointer-events="all"/><g fill="#666666" font-family="Helvetica" font-size="17px"><text x="62.5" y="33">Example</text></g><g fill="#666666" font-family="Helvetica" font-size="17px"><text x="132.5" y="81">https://www.example.com</text></g><rect x="11" y="132" width="90" height="30" fill="rgb(255, 255, 255)" stroke="none" pointer-events="all"/><g fill="#666666" font-family="Arial,Helvetica" font-size="17px"/><g fill="#666666" font-family="Helvetica" font-size="17px"><text x="16.5" y="152.5">Enter text:</text></g><rect x="424" y="331" width="105.5" height="40" rx="6" ry="6" fill="#ffffff" stroke="#4d4d4d" pointer-events="all"/><rect x="442.75" y="337" width="67.25" height="30" fill="rgb(255, 255, 255)" stroke="none" pointer-events="all"/><g fill="#666666" font-family="Arial,Helvetica" font-size="17px"/><g fill="#666666" font-family="Helvetica" font-size="17px"><text x="448.25" y="357.5">Submit</text></g><rect x="101" y="132" width="430" height="179" fill="rgb(255, 255, 255)" stroke="#666666" pointer-events="all"/><g fill="#666666" font-family="Arial,Helvetica" font-size="17px"/></g></svg>